<svg width="15" height="15" viewBox="0 0 15 15" fill="none" xmlns="http://www.w3.org/2000/svg">
<path d="M0.833252 10.9507C0.833252 10.5458 0.936444 10.1476 1.13309 9.79363L5.25703 2.37054C5.62258 1.71254 6.25863 1.24826 6.99673 1.10064V1.10064C7.3289 1.0342 7.67094 1.0342 8.00311 1.10064V1.10064C8.74121 1.24826 9.37726 1.71254 9.74281 2.37054L13.8668 9.79363C14.0634 10.1476 14.1666 10.5458 14.1666 10.9507V10.9507C14.1666 12.2666 13.0999 13.3333 11.784 13.3333H3.21585C1.89998 13.3333 0.833252 12.2666 0.833252 10.9507V10.9507Z" stroke="#F2883D" stroke-width="1.5"/>
<path d="M7.5 5.00002L7.5 7.66669" stroke="#F2883D" stroke-width="1.5" stroke-linecap="round" stroke-linejoin="round"/>
<path d="M7.5 9.66667L7.5 10" stroke="#F2883D" stroke-width="1.5" stroke-linecap="round" stroke-linejoin="round"/>
</svg>