
<svg width="160" height="20" viewBox="0 0 160 20" fill="none" xmlns="http://www.w3.org/2000/svg">
<g clip-path="url(#clip0_1_663)">
<path d="M10.0603 20C15.5832 20 20.0603 15.5228 20.0603 10C20.0603 4.47715 15.5832 0 10.0603 0C4.53746 0 0.0603027 4.47715 0.0603027 10C0.0603027 15.5228 4.53746 20 10.0603 20Z" fill="#26A17B"/>
<path d="M15.5259 7.66625C15.0266 7.31187 14.4922 6.93375 13.9697 6.55875C13.9578 6.55 13.9466 6.54125 13.9322 6.5325C13.871 6.48222 13.8016 6.4427 13.7272 6.41562L13.7209 6.4125C12.3228 6.06943 10.9251 5.72484 9.5278 5.37875L5.7878 4.45562L5.68968 4.42937C5.57718 4.3975 5.44718 4.36187 5.30843 4.37937C5.27042 4.3852 5.23416 4.39928 5.20218 4.42062L5.16718 4.45C5.12335 4.49494 5.08986 4.5489 5.06905 4.60812L5.0603 4.63187V4.76625L5.06655 4.78687C5.85405 7.0275 6.6628 9.30062 7.4428 11.5C8.04343 13.1937 8.6678 14.9475 9.27655 16.67C9.31405 16.7869 9.42093 16.8638 9.55405 16.875H9.5828C9.64097 16.8765 9.69847 16.8623 9.74927 16.8339C9.80007 16.8056 9.84231 16.7641 9.87155 16.7138L12.1591 13.3306C12.7159 12.5075 13.2734 11.6819 13.8309 10.8587L14.5153 9.845C14.8903 9.28875 15.2778 8.71438 15.6622 8.155L15.6822 8.12625V8.09062C15.6909 7.98812 15.6934 7.77812 15.5259 7.66625ZM12.8459 8.89937C12.3084 9.18313 11.7603 9.47625 11.2084 9.76625L12.1734 8.7175C12.5747 8.27812 12.9934 7.82375 13.4034 7.37875L13.4122 7.37C13.4466 7.32312 13.4903 7.27937 13.5366 7.2325C13.5678 7.20062 13.6028 7.16812 13.6347 7.13C13.8484 7.28 14.0647 7.43187 14.2728 7.58125C14.4228 7.68937 14.5759 7.79812 14.7322 7.90625C14.1012 8.23312 13.4725 8.56417 12.8459 8.89937ZM11.4659 8.75875C11.0528 9.2125 10.6253 9.67812 10.2009 10.1381C9.37731 9.12469 8.55127 8.11323 7.7228 7.10375L6.61093 5.7475L6.60843 5.74437C6.52468 5.64812 6.44343 5.5425 6.3628 5.44312C6.31093 5.37562 6.25593 5.31125 6.20093 5.24375C6.53593 5.33125 6.87405 5.41375 7.20593 5.4925C7.4978 5.56312 7.80093 5.63625 8.09843 5.7125L13.1266 6.95125C12.5691 7.555 12.0084 8.16687 11.4659 8.75875ZM10.0128 14.4675C10.0447 14.16 10.0797 13.8438 10.1084 13.5331C10.1347 13.2837 10.1603 13.0294 10.1866 12.7863C10.2266 12.3962 10.2703 11.9925 10.3053 11.5969L10.3134 11.5269C10.3422 11.2744 10.3709 11.0144 10.3884 10.7531C10.4221 10.7341 10.4569 10.7174 10.4928 10.7031C10.5359 10.6831 10.5791 10.6656 10.6222 10.6394C11.2893 10.2839 11.9574 9.93031 12.6266 9.57875C13.2941 9.2275 13.9784 8.86375 14.6572 8.50375C14.0413 9.40828 13.428 10.3145 12.8172 11.2225C12.3003 11.9862 11.7691 12.7744 11.2403 13.5506C11.0328 13.8612 10.8159 14.1775 10.6109 14.4819C10.3797 14.8219 10.1428 15.17 9.91218 15.5194C9.94093 15.1675 9.9753 14.8131 10.0128 14.4675ZM5.9878 5.935C5.9503 5.82937 5.90905 5.72125 5.87468 5.61875C6.65468 6.57375 7.43968 7.53437 8.2053 8.46562C8.60093 8.94875 8.99655 9.42937 9.39218 9.91562C9.4703 10.0062 9.54843 10.1031 9.62343 10.1969C9.72155 10.3169 9.81968 10.4431 9.92655 10.5631C9.89155 10.8644 9.8628 11.1694 9.83093 11.4619C9.81093 11.6669 9.79093 11.8725 9.7678 12.0806V12.0831C9.75905 12.2144 9.74155 12.3469 9.72718 12.4756L9.66093 13.0587L9.6578 13.0787C9.60593 13.6706 9.54218 14.2681 9.48155 14.8481C9.45593 15.0881 9.4328 15.3344 9.40655 15.5806C9.39218 15.5369 9.3753 15.4925 9.3603 15.4513C9.31627 15.3319 9.27398 15.2119 9.23343 15.0913L8.92405 14.2212L5.98718 5.935" fill="white"/>
</g>
<g clip-path="url(#clip1_1_663)">
<mask id="mask0_1_663" style="mask-type:luminance" maskUnits="userSpaceOnUse" x="28" y="3" width="21" height="13">
<path d="M48.0608 3.2251H28.0608V15.7179H48.0608V3.2251Z" fill="white"/>
</mask>
<g mask="url(#mask0_1_663)">
<path fill-rule="evenodd" clip-rule="evenodd" d="M48.0215 15.0705C48.0215 15.4385 47.7211 15.7389 47.3533 15.7389H28.7056C28.3377 15.7389 28.0374 15.4385 28.0374 15.0705V3.9143C28.0374 3.54634 28.3377 3.24585 28.7056 3.24585H47.3533C47.7212 3.24585 48.0216 3.54634 48.0216 3.9143L48.0215 15.0705Z" fill="#14477C"/>
<path fill-rule="evenodd" clip-rule="evenodd" d="M40.4264 13.0765L40.6103 13.0729L40.7945 13.0616L40.9746 13.0352L41.151 13.0052L41.3237 12.9639L41.4964 12.919L41.6616 12.8587L41.8268 12.7951L41.9843 12.7235L42.1382 12.6447L42.2886 12.5582L42.435 12.4645L42.5777 12.3632L42.7129 12.258L42.8404 12.1454L42.9678 12.025L43.0844 11.9011L43.1972 11.7697L43.3059 11.6345L43.4073 11.4957L43.4974 11.3492L43.5876 11.1991L43.6626 11.0451L43.7377 10.8837L43.8016 10.7221L43.858 10.5533L43.9068 10.3841L43.9479 10.2115L43.9781 10.0311L44.0007 9.85475L44.0155 9.67056L44.0192 9.48684L44.0155 9.3026L44.0007 9.11859L43.9781 8.94209L43.9479 8.76586L43.9068 8.59287L43.858 8.42409L43.8016 8.25494L43.7377 8.09358L43.6626 7.93575L43.5876 7.78184L43.4974 7.63168L43.4073 7.48522L43.3059 7.34638L43.1972 7.21117L43.0844 7.07978L42.9678 6.95585L42.8404 6.83938L42.7129 6.72674L42.5777 6.61796L42.435 6.52019L42.2886 6.42624L42.1382 6.34004L41.9843 6.261L41.8268 6.18967L41.6616 6.12604L41.4964 6.06961L41.3237 6.02085L41.151 5.97954L40.9746 5.94952L40.7945 5.92694L40.6103 5.91182L40.4264 5.9082L40.2424 5.91182L40.0624 5.92694L39.882 5.94952L39.7058 5.97954L39.5329 6.02085L39.3603 6.06961L39.1949 6.12604L39.0335 6.18967L38.8758 6.261L38.7219 6.34004L38.5718 6.42624L38.4253 6.52019L38.2865 6.61796L38.151 6.72674L38.0197 6.83938L37.8961 6.95585L37.7757 7.07978L37.667 7.21117L37.558 7.34638L37.4604 7.48522L37.3666 7.63168L37.2804 7.78184L37.2013 7.93575L37.1301 8.09358L37.0662 8.25494L37.01 8.42409L36.9613 8.59287L36.9197 8.76586L36.8899 8.94209L36.8673 9.11859L36.8522 9.3026L36.8484 9.48684L36.8522 9.67056L36.8673 9.85475L36.8899 10.0311L36.9197 10.2115L36.9613 10.3841L37.01 10.5533L37.0662 10.7221L37.1301 10.8837L37.2013 11.0451L37.2804 11.1991L37.3666 11.3492L37.4604 11.4957L37.558 11.6345L37.667 11.7697L37.7757 11.9011L37.8961 12.025L38.0197 12.1454L38.151 12.258L38.2865 12.3632L38.4253 12.4645L38.5718 12.5582L38.7219 12.6447L38.8758 12.7235L39.0335 12.7951L39.1949 12.8587L39.3603 12.919L39.5329 12.9639L39.7058 13.0052L39.882 13.0352L40.0624 13.0616L40.2424 13.0729L40.4264 13.0765Z" fill="#FBB230"/>
<path fill-rule="evenodd" clip-rule="evenodd" d="M35.632 13.0765L35.816 13.0729L35.9961 13.0616L36.1765 13.0352L36.3527 13.0052L36.5256 12.9639L36.6985 12.919L36.8634 12.8587L37.0248 12.7951L37.1826 12.7235L37.3365 12.6447L37.4866 12.5582L37.633 12.4645L37.7718 12.3632L37.9073 12.258L38.0386 12.1454L38.1622 12.025L38.2826 11.9011L38.3916 11.7697L38.5004 11.6345L38.5979 11.4957L38.6918 11.3492L38.7779 11.1991L38.857 11.0451L38.9283 10.8837L38.9922 10.7221L39.0483 10.5533L39.0973 10.3841L39.1386 10.2115L39.1684 10.0311L39.191 9.85475L39.2061 9.67056L39.2099 9.48684L39.2061 9.3026L39.191 9.11859L39.1684 8.94209L39.1386 8.76586L39.0973 8.59287L39.0483 8.42409L38.9922 8.25494L38.9283 8.09358L38.857 7.93575L38.7779 7.78184L38.6918 7.63168L38.5979 7.48522L38.5004 7.34638L38.3916 7.21117L38.2826 7.07978L38.1622 6.95585L38.0386 6.83938L37.9073 6.72674L37.7718 6.61796L37.633 6.52019L37.4866 6.42624L37.3365 6.34004L37.1826 6.261L37.0248 6.18967L36.8634 6.12604L36.6985 6.06961L36.5256 6.02085L36.3527 5.97954L36.1765 5.94952L35.9961 5.92694L35.816 5.91182L35.632 5.9082L35.4481 5.91182L35.264 5.92694L35.0839 5.94952L34.9074 5.97954L34.735 6.02085L34.5621 6.06961L34.3969 6.12604L34.2316 6.18967L34.0741 6.261L33.9202 6.34004L33.7699 6.42624L33.6237 6.52019L33.481 6.61796L33.3456 6.72674L33.2181 6.83938L33.0906 6.95585L32.9741 7.07978L32.8612 7.21117L32.7525 7.34638L32.6512 7.48522L32.5611 7.63168L32.4708 7.78184L32.3959 7.93575L32.3207 8.09358L32.2568 8.25494L32.2007 8.42409L32.1516 8.59287L32.1142 8.76586L32.0803 8.94209L32.058 9.11859L32.0429 9.3026L32.0393 9.48684L32.0429 9.67056L32.058 9.85475L32.0803 10.0311L32.1142 10.2115L32.1516 10.3841L32.2007 10.5533L32.2568 10.7221L32.3207 10.8837L32.3959 11.0451L32.4708 11.1991L32.5611 11.3492L32.6512 11.4957L32.7525 11.6345L32.8612 11.7697L32.9741 11.9011L33.0906 12.025L33.2181 12.1454L33.3456 12.258L33.481 12.3632L33.6237 12.4645L33.7699 12.5582L33.9202 12.6447L34.0741 12.7235L34.2316 12.7951L34.3969 12.8587L34.5621 12.919L34.735 12.9639L34.9074 13.0052L35.0839 13.0352L35.264 13.0616L35.4481 13.0729L35.632 13.0765Z" fill="#EB2230"/>
<path fill-rule="evenodd" clip-rule="evenodd" d="M37.6106 7.28246H39.5143V7.08716H37.7758L37.6106 7.28246Z" fill="#FBB230"/>
<path fill-rule="evenodd" clip-rule="evenodd" d="M37.3259 7.71423H39.5149V7.51892H37.4386L37.3259 7.71423Z" fill="#FBB230"/>
<path fill-rule="evenodd" clip-rule="evenodd" d="M37.1118 8.14635H39.5147V7.95105H37.1982L37.1118 8.14635Z" fill="#FBB230"/>
<path fill-rule="evenodd" clip-rule="evenodd" d="M36.9653 8.57791H39.5147V8.38647H37.0253L36.9653 8.57791Z" fill="#FBB230"/>
<path fill-rule="evenodd" clip-rule="evenodd" d="M37.0507 10.6735H39.5213V10.4783H36.991L37.0507 10.6735Z" fill="#FBB230"/>
<path fill-rule="evenodd" clip-rule="evenodd" d="M37.2314 11.1054H39.5216V10.9102H37.1414L37.2314 11.1054Z" fill="#FBB230"/>
<path fill-rule="evenodd" clip-rule="evenodd" d="M37.4904 11.5371H39.5215V11.3418H37.3665L37.4904 11.5371Z" fill="#FBB230"/>
<path fill-rule="evenodd" clip-rule="evenodd" d="M37.8438 11.969H39.5219V11.7737H37.6711L37.8438 11.969Z" fill="#FBB230"/>
<path fill-rule="evenodd" clip-rule="evenodd" d="M36.8787 9.00997H39.5142V8.81836H36.9161L36.8787 9.00997Z" fill="#FBB230"/>
<path fill-rule="evenodd" clip-rule="evenodd" d="M38.4851 10.2416H39.4914V10.0464H38.5228L38.4851 10.2416Z" fill="#FBB230"/>
<path fill-rule="evenodd" clip-rule="evenodd" d="M38.5645 9.80956H39.4919V9.61426H38.6022L38.5645 9.80956Z" fill="#FBB230"/>
<path fill-rule="evenodd" clip-rule="evenodd" d="M36.8115 9.61426H37.0743V9.80956H36.8268L36.8115 9.61426Z" fill="#FBB230"/>
<path fill-rule="evenodd" clip-rule="evenodd" d="M43.6746 11.507C43.7686 11.507 43.8437 11.5857 43.8437 11.6757C43.8437 11.7697 43.7686 11.8448 43.6746 11.8448C43.5808 11.8448 43.5059 11.7697 43.5059 11.6757C43.5059 11.5857 43.5808 11.507 43.6746 11.507ZM43.6746 11.5369C43.7537 11.5369 43.8173 11.6008 43.8173 11.6757C43.8173 11.7548 43.7537 11.8186 43.6746 11.8186C43.5997 11.8186 43.5355 11.7548 43.5355 11.6757C43.5355 11.6008 43.5997 11.5369 43.6746 11.5369Z" fill="#FBB230"/>
<path d="M43.6108 11.7509V11.6083H43.6708C43.6857 11.6083 43.697 11.6083 43.7047 11.6121C43.7119 11.6157 43.7159 11.6196 43.7195 11.6232C43.7232 11.6309 43.7269 11.6383 43.7269 11.6458C43.7269 11.657 43.7232 11.6683 43.7195 11.6722C43.7118 11.6796 43.7008 11.6835 43.6892 11.687C43.697 11.6909 43.7008 11.6948 43.7046 11.6983C43.7082 11.7021 43.7159 11.7096 43.7195 11.7209L43.7382 11.7509H43.7046L43.6818 11.717C43.6778 11.7058 43.6707 11.7022 43.6669 11.6984C43.6669 11.6948 43.663 11.6948 43.6594 11.6909C43.6556 11.6909 43.6518 11.6909 43.6443 11.6909H43.6405V11.7509H43.6108ZM43.6406 11.6683H43.6595C43.6744 11.6683 43.6819 11.6683 43.6857 11.6647C43.6893 11.6647 43.6935 11.6647 43.6935 11.6608C43.697 11.657 43.697 11.6534 43.697 11.6495C43.697 11.6457 43.697 11.6421 43.6935 11.6383C43.6893 11.6344 43.6857 11.6344 43.6819 11.6308C43.6819 11.6308 43.6744 11.6308 43.6632 11.6308H43.6406V11.6683H43.6406Z" fill="#FBB230"/>
<path fill-rule="evenodd" clip-rule="evenodd" d="M43.6363 10.0952C43.7302 10.0952 43.8051 10.1703 43.8051 10.2643C43.8051 10.3582 43.7302 10.4332 43.6363 10.4332C43.5424 10.4332 43.4675 10.3582 43.4675 10.2643C43.4675 10.1703 43.5424 10.0952 43.6363 10.0952ZM43.6363 10.1252C43.7153 10.1252 43.779 10.189 43.779 10.2643C43.779 10.343 43.7154 10.4069 43.6363 10.4069C43.5573 10.4069 43.4937 10.343 43.4937 10.2643C43.4937 10.1891 43.5573 10.1252 43.6363 10.1252Z" fill="white"/>
<path d="M43.5725 10.3354V10.1963H43.6326C43.6476 10.1963 43.659 10.1963 43.6664 10.2001C43.6702 10.2001 43.6774 10.2076 43.6813 10.2114C43.6851 10.2189 43.6887 10.2263 43.6887 10.2341C43.6887 10.2453 43.6851 10.2527 43.6774 10.2601C43.6738 10.2676 43.6626 10.2714 43.6513 10.2753C43.6551 10.2789 43.6626 10.2828 43.6664 10.2866C43.6702 10.2902 43.6738 10.2977 43.6813 10.309L43.7002 10.3354H43.6664L43.6437 10.3053C43.6363 10.2941 43.6325 10.2866 43.6287 10.2866C43.6251 10.2828 43.6251 10.2789 43.6214 10.2789C43.6173 10.2789 43.6138 10.2789 43.6063 10.2789H43.5989V10.3354L43.5725 10.3354ZM43.5989 10.2566H43.6215C43.6363 10.2566 43.6438 10.2566 43.6476 10.2528C43.6513 10.2528 43.6551 10.2489 43.6551 10.2489C43.659 10.2453 43.659 10.2414 43.659 10.2376C43.659 10.2341 43.6551 10.2263 43.6551 10.2263C43.6513 10.2228 43.6476 10.2189 43.6439 10.2189C43.6401 10.2189 43.6326 10.2189 43.6215 10.2189H43.599L43.5989 10.2566Z" fill="white"/>
<path fill-rule="evenodd" clip-rule="evenodd" d="M41.2231 10.3616L41.4671 9.08508H41.7711L41.8088 9.21643C41.865 9.15998 41.9588 9.08508 42.1466 9.08508L42.0528 9.42302C41.9702 9.42302 41.8424 9.40789 41.7375 9.65568C41.6587 9.84354 41.621 10.1551 41.5797 10.3616H41.2231Z" fill="white"/>
<path fill-rule="evenodd" clip-rule="evenodd" d="M36.6198 8.76587H36.9574L36.8825 9.10376H37.0702L37.0139 9.36657H36.845L36.7511 9.87356C36.7324 9.96749 36.7511 10.0614 36.9389 10.0236L36.9015 10.3054C36.6988 10.4593 36.293 10.3467 36.3568 9.96749L36.6198 8.76587Z" fill="white"/>
<path fill-rule="evenodd" clip-rule="evenodd" d="M38.1256 9.79838C38.1631 9.59185 38.257 9.08508 37.6526 9.08508C37.0896 9.08508 37.0144 9.64829 37.0144 9.72319C36.9959 9.79838 36.9959 10.3616 37.5964 10.3616C37.7465 10.3616 37.9569 10.3428 38.0507 10.3054L38.1069 10.0424C38.0507 10.0614 37.8592 10.0801 37.7091 10.0801C37.5777 10.0801 37.3525 10.0801 37.3899 9.79832L38.1256 9.79838Z" fill="white"/>
<path fill-rule="evenodd" clip-rule="evenodd" d="M34.0291 10.3616L34.3295 8.82202H33.7438L33.3308 9.76088L33.2556 8.82202H32.7113L32.4109 10.3616H32.7488L32.9742 9.25388L33.0681 10.3616H33.3872L33.8752 9.27262L33.6687 10.3616H34.0291Z" fill="white"/>
<path fill-rule="evenodd" clip-rule="evenodd" d="M34.4228 9.12249L34.3666 9.40426C34.4605 9.40426 34.6857 9.36655 34.7983 9.36655C34.911 9.36655 35.0611 9.34787 35.0049 9.53567C34.911 9.53567 34.2914 9.44174 34.1975 9.98621C34.1452 10.3467 34.5731 10.4781 34.8358 10.3054L34.8734 10.3804H35.1923L35.3239 9.68569C35.4628 9.05859 34.8584 9.0473 34.4228 9.12249Z" fill="white"/>
<path fill-rule="evenodd" clip-rule="evenodd" d="M40.0134 9.23524C39.927 9.18257 39.8744 9.18257 39.7656 9.18257C39.6605 9.18257 39.4126 9.28779 39.3787 9.56928C39.3261 9.92234 39.5552 10.0802 39.8893 9.97495L39.9796 10.2754C39.409 10.5607 38.8643 10.1176 39.0446 9.42664C39.1909 8.9047 39.8818 8.58939 40.2274 9.0212L40.0134 9.23524Z" fill="white"/>
<path fill-rule="evenodd" clip-rule="evenodd" d="M42.9905 9.23535C42.0706 8.54431 41.7138 10.3618 42.4272 10.3618C42.5398 10.3618 42.6527 10.3056 42.7276 10.2678L42.765 10.3618H43.1406L43.441 8.74707H43.0843L42.9905 9.23535Z" fill="white"/>
<path fill-rule="evenodd" clip-rule="evenodd" d="M40.2837 9.12249L40.2275 9.40426C40.321 9.40426 40.5466 9.36655 40.659 9.36655C40.7719 9.36655 40.9032 9.34787 40.8657 9.53567C40.7719 9.53567 40.1523 9.44174 40.0587 9.98621C40.0206 10.249 40.2462 10.3804 40.4153 10.3804C40.584 10.3804 40.6404 10.3429 40.6966 10.3054L40.7341 10.3804H41.0535L41.1848 9.68569C41.3276 9.05859 40.7229 9.0473 40.2837 9.12249Z" fill="white"/>
<path fill-rule="evenodd" clip-rule="evenodd" d="M37.3894 9.5544H37.8212C37.8699 9.21262 37.4607 9.2803 37.3894 9.5544Z" fill="#EB2230"/>
<path fill-rule="evenodd" clip-rule="evenodd" d="M34.9492 9.7984C34.8928 9.7984 34.7614 9.76092 34.6485 9.83611C34.5362 9.91101 34.4985 10.0424 34.63 10.0801C34.7424 10.1175 34.8928 10.0424 34.9302 9.92975L34.9492 9.7984Z" fill="#EB2230"/>
<path fill-rule="evenodd" clip-rule="evenodd" d="M42.8221 9.4418C42.7095 9.29143 42.4656 9.40438 42.3904 9.68581C42.3342 9.87361 42.4468 10.005 42.5595 10.005C42.796 10.0051 42.9387 9.61836 42.8221 9.4418Z" fill="#FBB230"/>
<path fill-rule="evenodd" clip-rule="evenodd" d="M40.8288 9.7984C40.7727 9.7984 40.6413 9.76092 40.5284 9.83611C40.4161 9.91101 40.3784 10.0424 40.5099 10.0801C40.6223 10.1175 40.7914 10.0424 40.8101 9.92975L40.8288 9.7984Z" fill="#FBB230"/>
<path fill-rule="evenodd" clip-rule="evenodd" d="M38.1252 10.3803L38.1443 10.2489L38.3695 9.10376H38.6697L38.7071 9.23516C38.7635 9.17872 38.8575 9.10376 39.0452 9.10376L38.9513 9.4417C38.88 9.4417 38.7297 9.42657 38.617 9.72703C38.5532 9.89975 38.5157 10.1928 38.4819 10.3803H38.1252Z" fill="white"/>
<path fill-rule="evenodd" clip-rule="evenodd" d="M36.3082 9.41184H36.293H36.2782L36.2633 9.408L36.2482 9.40439H36.2331L36.2182 9.40049C36.1505 9.3931 36.0943 9.3892 36.0268 9.3931C35.8539 9.40794 35.779 9.51671 35.9253 9.59935C36.0417 9.66708 36.132 9.65574 36.2105 9.73098C36.3796 9.88857 36.2931 10.1928 36.1053 10.3091L36.0718 10.3242L36.0343 10.3393L35.993 10.3504L35.9556 10.3616C35.7753 10.3917 35.5313 10.3842 35.3547 10.3242L35.4035 10.0725C35.5461 10.1025 35.7791 10.1664 35.8879 10.0915C36.0118 10.0089 35.8991 9.9111 35.8088 9.86984L35.764 9.85488L35.7191 9.8362C35.3622 9.67448 35.4451 9.24267 35.7827 9.15264C35.9179 9.12261 36.0531 9.12261 36.1921 9.1339H36.2182C36.2522 9.13751 36.2822 9.14141 36.3122 9.1488H36.3271L36.3383 9.15264H36.3496L36.357 9.15648H36.3683L36.3082 9.41184Z" fill="white"/>
</g>
</g>
<g clip-path="url(#clip2_1_663)">
<path d="M66.0601 20C71.5829 20 76.0601 15.5228 76.0601 10C76.0601 4.47715 71.5829 0 66.0601 0C60.5372 0 56.0601 4.47715 56.0601 10C56.0601 15.5228 60.5372 20 66.0601 20Z" fill="#EB0029"/>
<path fill-rule="evenodd" clip-rule="evenodd" d="M61.5391 5.35789C61.6307 5.60145 65.4982 15.3033 65.5074 15.3125C65.5179 15.323 71.0461 8.61722 71.06 8.57708C71.067 8.557 69.1386 6.72706 69.0877 6.7055C69.0664 6.69643 67.3695 6.38145 65.3169 6.00553C63.2643 5.62961 61.5703 5.31867 61.5524 5.31458C61.5248 5.30823 61.5228 5.31475 61.5391 5.35789ZM65.6785 6.60615C67.1662 6.87897 68.3835 7.10801 68.3835 7.11515C68.3835 7.12834 66.366 8.80747 66.3031 8.84673C66.2736 8.86508 66.0367 8.6762 64.6212 7.50604C62.747 5.95672 62.9315 6.11126 62.9552 6.11061C62.9653 6.11034 64.1908 6.33333 65.6785 6.60615ZM64.3177 7.93618C65.5375 8.94626 66.0433 9.37615 66.0384 9.39878C66.0346 9.41639 65.9136 10.4137 65.7694 11.6151C65.6252 12.8164 65.503 13.8122 65.4977 13.8278C65.4925 13.8435 64.8327 12.211 64.0314 10.2002C63.2301 8.18936 62.5696 6.53211 62.5636 6.51743C62.5576 6.50275 62.5611 6.49409 62.5714 6.49819C62.5817 6.50226 63.3675 7.14937 64.3177 7.93618ZM69.5663 7.86534C69.8813 8.16337 70.1357 8.41047 70.1317 8.4145C70.119 8.42712 67.0444 8.97947 67.0167 8.97408C66.9933 8.9695 68.9529 7.32351 68.9818 7.32351C68.9882 7.32351 69.2513 7.56734 69.5663 7.86534ZM70.0204 9.01704C69.9304 9.14803 66.0393 13.8579 66.0357 13.8403C66.0332 13.8283 66.1463 12.8703 66.2869 11.7113L66.5427 9.604L68.249 9.29308C69.1875 9.12204 69.9759 8.98133 70.0011 8.98034C70.0429 8.9787 70.0446 8.98189 70.0204 9.01704Z" fill="white"/>
</g>
<g clip-path="url(#clip3_1_663)">
<path d="M94.0601 20C99.5829 20 104.06 15.5228 104.06 10C104.06 4.47717 99.5829 0 94.0601 0C88.5372 0 84.0601 4.47717 84.0601 10C84.0601 15.5228 88.5372 20 94.0601 20Z" fill="#8DC351"/>
<path d="M98.7435 8.30665C98.2702 8.06665 97.7002 8.01665 97.0402 8.15998C97.6102 7.41665 97.6302 6.60331 97.1002 5.72665C96.9102 5.40665 96.6802 5.15998 96.4069 4.98998C96.1335 4.81665 95.8335 4.71998 95.4969 4.69665C95.1635 4.67331 94.8202 4.69665 94.4769 4.76331C94.1302 4.83331 93.7502 4.94331 93.3335 5.09998L92.4202 3.18665L91.2502 3.74331L92.1369 5.60331C91.9335 5.69998 91.6269 5.85331 91.2169 6.05998L90.3235 4.18331L89.1535 4.73998L90.0669 6.65331C89.9035 6.73665 89.6569 6.85665 89.3335 7.01331L87.7202 7.77331L88.3135 9.01998L89.1569 8.61665C89.5402 8.43331 89.8502 8.49665 90.0802 8.80998L91.1202 10.99C91.1702 10.9666 91.2135 10.95 91.2469 10.94L91.1269 10.9966L92.5835 14.05C92.6669 14.3266 92.5802 14.5266 92.3269 14.6466L91.4835 15.05L91.9102 16.5533L93.4302 15.83C93.5269 15.7833 93.6669 15.72 93.8502 15.6333C94.0335 15.55 94.1702 15.4866 94.2635 15.44L95.1869 17.3766L96.3569 16.82L95.4435 14.9066C95.6602 14.81 95.9702 14.6666 96.3735 14.4733L97.2835 16.38L98.4535 15.8233L97.5302 13.8866C97.9369 13.67 98.2869 13.4533 98.5802 13.2466C98.8735 13.0366 99.1402 12.8033 99.3769 12.5433C99.6135 12.2833 99.7869 12.02 99.9002 11.7466C100.014 11.4766 100.07 11.1733 100.067 10.8366C100.067 10.5033 99.9969 10.1466 99.8602 9.76998C99.5902 9.03331 99.2202 8.54331 98.7435 8.30665ZM91.8969 7.41331C91.9335 7.39665 92.0302 7.34665 92.1935 7.26665C92.3569 7.18665 92.4935 7.11665 92.6002 7.06331C92.7069 7.00998 92.8569 6.94665 93.0502 6.87331C93.2435 6.79998 93.4069 6.74665 93.5469 6.70998C93.6869 6.67331 93.8435 6.64998 94.0235 6.63665C94.2035 6.62331 94.3569 6.63665 94.4902 6.67665C94.6202 6.71665 94.7502 6.78665 94.8735 6.88665C94.9969 6.98665 95.1002 7.11998 95.1802 7.28665C95.2469 7.42998 95.2869 7.56998 95.2969 7.70665C95.3069 7.84331 95.2835 7.97331 95.2302 8.09665C95.1769 8.21998 95.1169 8.33331 95.0469 8.43665C94.9769 8.53998 94.8769 8.64665 94.7469 8.75331C94.6135 8.85998 94.4969 8.94998 94.3969 9.02331C94.2935 9.09665 94.1635 9.17665 94.0002 9.26331C93.8369 9.34998 93.7135 9.41665 93.6269 9.45998C93.5435 9.50331 93.4235 9.55998 93.2735 9.62998C93.1235 9.69998 93.0335 9.73998 93.0102 9.74998L91.8969 7.41331ZM97.5569 11.0633C97.5635 11.2033 97.5502 11.3333 97.5169 11.4566C97.4802 11.58 97.4169 11.7033 97.3269 11.8266C97.2335 11.9533 97.1402 12.0633 97.0435 12.1566C96.9469 12.2533 96.8235 12.3566 96.6735 12.4633C96.5235 12.5733 96.3902 12.6633 96.2702 12.7333C96.1535 12.8066 96.0102 12.8866 95.8402 12.9766C95.6702 13.0666 95.5402 13.1333 95.4435 13.18C95.3469 13.2266 95.2235 13.2833 95.0769 13.35C94.9302 13.4166 94.8335 13.46 94.7935 13.48L93.5702 10.9133C93.6102 10.8933 93.7302 10.8333 93.9269 10.7333C94.1235 10.6333 94.2869 10.5533 94.4135 10.4933C94.5402 10.4333 94.7169 10.3566 94.9469 10.2666C95.1769 10.1766 95.3735 10.11 95.5402 10.0666C95.7069 10.0233 95.8935 9.99331 96.1035 9.96998C96.3135 9.94665 96.4969 9.95665 96.6502 9.99331C96.8035 10.03 96.9535 10.1033 97.0969 10.21C97.2402 10.3166 97.3569 10.46 97.4435 10.64C97.5135 10.7833 97.5502 10.9233 97.5569 11.0633Z" fill="white"/>
</g>
<g clip-path="url(#clip4_1_663)">
<path d="M122.029 0.0419922L124.489 2.56111L118.295 8.75517L115.835 6.29533L122.029 0.0419922Z" fill="#F0B90B" stroke="#F0B90B" stroke-width="0.0592733"/>
<path d="M125.763 3.77637L128.223 6.29548L118.295 16.2238L115.835 13.7639L125.763 3.77637Z" fill="#F0B90B" stroke="#F0B90B" stroke-width="0.0592733"/>
<path d="M114.561 7.51074L117.021 10.0299L114.561 12.4897L112.101 10.0299L114.561 7.51074Z" fill="#F0B90B" stroke="#F0B90B" stroke-width="0.0592733"/>
<path d="M129.498 7.51074L131.957 10.0299L122.029 19.9581L119.569 17.4983L129.498 7.51074Z" fill="#F0B90B" stroke="#F0B90B" stroke-width="0.0592733"/>
</g>
<g clip-path="url(#clip5_1_663)">
<path d="M150 20C155.523 20 160 15.5228 160 10C160 4.47717 155.523 0 150 0C144.477 0 140 4.47717 140 10C140 15.5228 144.477 20 150 20Z" fill="url(#paint0_linear_1_663)"/>
<path d="M150 12.12L146.163 10.2966L150 17L153.837 10.2966L150 12.12Z" fill="white"/>
<path d="M153.417 8.93667L150 3L146.577 8.94333L150 7.32L153.417 8.93667Z" fill="white"/>
<path d="M146.873 9.71331L150 11.1933L153.13 9.70998L150 8.22998L146.873 9.71331Z" fill="white"/>
</g>
<defs>
<linearGradient id="paint0_linear_1_663" x1="150" y1="0" x2="150" y2="20" gradientUnits="userSpaceOnUse">
<stop stop-color="#4A819F"/>
<stop offset="1" stop-color="#034681"/>
</linearGradient>
<clipPath id="clip0_1_663">
<rect width="20" height="20" fill="white" transform="translate(0.0598145)"/>
</clipPath>
<clipPath id="clip1_1_663">
<rect width="20" height="12.4928" fill="white" transform="translate(28.0601 3.2251)"/>
</clipPath>
<clipPath id="clip2_1_663">
<rect width="20" height="20" fill="white" transform="translate(56.0598)"/>
</clipPath>
<clipPath id="clip3_1_663">
<rect width="20" height="20" fill="white" transform="translate(84.0598)"/>
</clipPath>
<clipPath id="clip4_1_663">
<rect width="19.9401" height="20" fill="white" transform="translate(112.06)"/>
</clipPath>
<clipPath id="clip5_1_663">
<rect width="20" height="20" fill="white" transform="translate(140)"/>
</clipPath>
</defs>
</svg>
