
<svg width="160" height="20" viewBox="0 0 160 20" fill="none" xmlns="http://www.w3.org/2000/svg">
<g clip-path="url(#clip0_1_594)">
<mask id="mask0_1_594" style="mask-type:luminance" maskUnits="userSpaceOnUse" x="0" y="3" width="21" height="13">
<path d="M20.0608 3.2251H0.060791V15.7179H20.0608V3.2251Z" fill="white"/>
</mask>
<g mask="url(#mask0_1_594)">
<path fill-rule="evenodd" clip-rule="evenodd" d="M20.0215 15.0705C20.0215 15.4385 19.7211 15.7389 19.3533 15.7389H0.705622C0.337743 15.7389 0.0373535 15.4385 0.0373535 15.0705V3.9143C0.0373535 3.54634 0.337743 3.24585 0.705622 3.24585H19.3533C19.7212 3.24585 20.0216 3.54634 20.0216 3.9143L20.0215 15.0705Z" fill="#14477C"/>
<path fill-rule="evenodd" clip-rule="evenodd" d="M12.4264 13.0765L12.6103 13.0729L12.7945 13.0616L12.9746 13.0352L13.151 13.0052L13.3237 12.9639L13.4964 12.919L13.6616 12.8587L13.8268 12.7951L13.9843 12.7235L14.1382 12.6447L14.2886 12.5582L14.435 12.4645L14.5777 12.3632L14.7129 12.258L14.8404 12.1454L14.9678 12.025L15.0844 11.9011L15.1972 11.7697L15.3059 11.6345L15.4073 11.4957L15.4974 11.3492L15.5876 11.1991L15.6626 11.0451L15.7377 10.8837L15.8016 10.7221L15.858 10.5533L15.9068 10.3841L15.9479 10.2115L15.9781 10.0311L16.0007 9.85475L16.0155 9.67056L16.0192 9.48684L16.0155 9.3026L16.0007 9.11859L15.9781 8.94209L15.9479 8.76586L15.9068 8.59287L15.858 8.42409L15.8016 8.25494L15.7377 8.09358L15.6626 7.93575L15.5876 7.78184L15.4974 7.63168L15.4073 7.48522L15.3059 7.34638L15.1972 7.21117L15.0844 7.07978L14.9678 6.95585L14.8404 6.83938L14.7129 6.72674L14.5777 6.61796L14.435 6.52019L14.2886 6.42624L14.1382 6.34004L13.9843 6.261L13.8268 6.18967L13.6616 6.12604L13.4964 6.06961L13.3237 6.02085L13.151 5.97954L12.9746 5.94952L12.7945 5.92694L12.6103 5.91182L12.4264 5.9082L12.2424 5.91182L12.0624 5.92694L11.882 5.94952L11.7058 5.97954L11.5329 6.02085L11.3603 6.06961L11.1949 6.12604L11.0335 6.18967L10.8758 6.261L10.7219 6.34004L10.5718 6.42624L10.4253 6.52019L10.2865 6.61796L10.151 6.72674L10.0197 6.83938L9.89607 6.95585L9.77572 7.07978L9.66701 7.21117L9.55796 7.34638L9.46042 7.48522L9.36656 7.63168L9.28037 7.78184L9.20134 7.93575L9.13005 8.09358L9.06615 8.25494L9.00999 8.42409L8.96128 8.59287L8.91968 8.76586L8.88994 8.94209L8.8673 9.11859L8.85223 9.3026L8.84839 9.48684L8.85223 9.67056L8.8673 9.85475L8.88994 10.0311L8.91968 10.2115L8.96128 10.3841L9.00999 10.5533L9.06615 10.7221L9.13005 10.8837L9.20134 11.0451L9.28037 11.1991L9.36656 11.3492L9.46042 11.4957L9.55796 11.6345L9.66701 11.7697L9.77572 11.9011L9.89607 12.025L10.0197 12.1454L10.151 12.258L10.2865 12.3632L10.4253 12.4645L10.5718 12.5582L10.7219 12.6447L10.8758 12.7235L11.0335 12.7951L11.1949 12.8587L11.3603 12.919L11.5329 12.9639L11.7058 13.0052L11.882 13.0352L12.0624 13.0616L12.2424 13.0729L12.4264 13.0765Z" fill="#FBB230"/>
<path fill-rule="evenodd" clip-rule="evenodd" d="M7.63205 13.0765L7.816 13.0729L7.99606 13.0616L8.17646 13.0352L8.35268 13.0052L8.52557 12.9639L8.69846 12.919L8.86345 12.8587L9.02477 12.7951L9.18259 12.7235L9.33646 12.6447L9.4866 12.5582L9.63302 12.4645L9.77182 12.3632L9.90729 12.258L10.0386 12.1454L10.1622 12.025L10.2826 11.9011L10.3916 11.7697L10.5004 11.6345L10.5979 11.4957L10.6918 11.3492L10.7779 11.1991L10.857 11.0451L10.9283 10.8837L10.9922 10.7221L11.0483 10.5533L11.0973 10.3841L11.1386 10.2115L11.1684 10.0311L11.191 9.85475L11.2061 9.67056L11.2099 9.48684L11.2061 9.3026L11.191 9.11859L11.1684 8.94209L11.1386 8.76586L11.0973 8.59287L11.0483 8.42409L10.9922 8.25494L10.9283 8.09358L10.857 7.93575L10.7779 7.78184L10.6918 7.63168L10.5979 7.48522L10.5004 7.34638L10.3916 7.21117L10.2826 7.07978L10.1622 6.95585L10.0386 6.83938L9.90729 6.72674L9.77182 6.61796L9.63302 6.52019L9.4866 6.42624L9.33646 6.34004L9.18259 6.261L9.02477 6.18967L8.86345 6.12604L8.69846 6.06961L8.52557 6.02085L8.35268 5.97954L8.17646 5.94952L7.99606 5.92694L7.816 5.91182L7.63205 5.9082L7.44815 5.91182L7.26397 5.92694L7.08385 5.94952L6.9074 5.97954L6.73497 6.02085L6.56207 6.06961L6.39686 6.12604L6.23164 6.18967L6.07411 6.261L5.92024 6.34004L5.76986 6.42624L5.62369 6.52019L5.48101 6.61796L5.34562 6.72674L5.21809 6.83938L5.09057 6.95585L4.97411 7.07978L4.8612 7.21117L4.7525 7.34638L4.65116 7.48522L4.56107 7.63168L4.4708 7.78184L4.39586 7.93575L4.32071 8.09358L4.25684 8.25494L4.20068 8.42409L4.15163 8.59287L4.11425 8.76586L4.08032 8.94209L4.05804 9.11859L4.04289 9.3026L4.03931 9.48684L4.04289 9.67056L4.05804 9.85475L4.08032 10.0311L4.11425 10.2115L4.15163 10.3841L4.20068 10.5533L4.25684 10.7221L4.32071 10.8837L4.39586 11.0451L4.4708 11.1991L4.56107 11.3492L4.65116 11.4957L4.7525 11.6345L4.8612 11.7697L4.97411 11.9011L5.09057 12.025L5.21809 12.1454L5.34562 12.258L5.48101 12.3632L5.62369 12.4645L5.76986 12.5582L5.92024 12.6447L6.07411 12.7235L6.23164 12.7951L6.39686 12.8587L6.56207 12.919L6.73497 12.9639L6.9074 13.0052L7.08385 13.0352L7.26397 13.0616L7.44815 13.0729L7.63205 13.0765Z" fill="#EB2230"/>
<path fill-rule="evenodd" clip-rule="evenodd" d="M9.6106 7.28246H11.5143V7.08716H9.77581L9.6106 7.28246Z" fill="#FBB230"/>
<path fill-rule="evenodd" clip-rule="evenodd" d="M9.32593 7.71423H11.5149V7.51892H9.43859L9.32593 7.71423Z" fill="#FBB230"/>
<path fill-rule="evenodd" clip-rule="evenodd" d="M9.11182 8.14635H11.5147V7.95105H9.19823L9.11182 8.14635Z" fill="#FBB230"/>
<path fill-rule="evenodd" clip-rule="evenodd" d="M8.96533 8.57791H11.5147V8.38647H9.02533L8.96533 8.57791Z" fill="#FBB230"/>
<path fill-rule="evenodd" clip-rule="evenodd" d="M9.05074 10.6735H11.5213V10.4783H8.99097L9.05074 10.6735Z" fill="#FBB230"/>
<path fill-rule="evenodd" clip-rule="evenodd" d="M9.23139 11.1054H11.5216V10.9102H9.14136L9.23139 11.1054Z" fill="#FBB230"/>
<path fill-rule="evenodd" clip-rule="evenodd" d="M9.49035 11.5371H11.5215V11.3418H9.36646L9.49035 11.5371Z" fill="#FBB230"/>
<path fill-rule="evenodd" clip-rule="evenodd" d="M9.84381 11.969H11.5219V11.7737H9.67114L9.84381 11.969Z" fill="#FBB230"/>
<path fill-rule="evenodd" clip-rule="evenodd" d="M8.87866 9.00997H11.5142V8.81836H8.91614L8.87866 9.00997Z" fill="#FBB230"/>
<path fill-rule="evenodd" clip-rule="evenodd" d="M10.4851 10.2416H11.4914V10.0464H10.5228L10.4851 10.2416Z" fill="#FBB230"/>
<path fill-rule="evenodd" clip-rule="evenodd" d="M10.5645 9.80956H11.4919V9.61426H10.6022L10.5645 9.80956Z" fill="#FBB230"/>
<path fill-rule="evenodd" clip-rule="evenodd" d="M8.81152 9.61426H9.07427V9.80956H8.82677L8.81152 9.61426Z" fill="#FBB230"/>
<path fill-rule="evenodd" clip-rule="evenodd" d="M15.6746 11.507C15.7686 11.507 15.8437 11.5857 15.8437 11.6757C15.8437 11.7697 15.7686 11.8448 15.6746 11.8448C15.5808 11.8448 15.5059 11.7697 15.5059 11.6757C15.5059 11.5857 15.5808 11.507 15.6746 11.507ZM15.6746 11.5369C15.7537 11.5369 15.8173 11.6008 15.8173 11.6757C15.8173 11.7548 15.7537 11.8186 15.6746 11.8186C15.5997 11.8186 15.5355 11.7548 15.5355 11.6757C15.5355 11.6008 15.5997 11.5369 15.6746 11.5369Z" fill="#FBB230"/>
<path d="M15.6108 11.7509V11.6083H15.6708C15.6857 11.6083 15.697 11.6083 15.7047 11.6121C15.7119 11.6157 15.7159 11.6196 15.7195 11.6232C15.7232 11.6309 15.7269 11.6383 15.7269 11.6458C15.7269 11.657 15.7232 11.6683 15.7195 11.6722C15.7118 11.6796 15.7008 11.6835 15.6892 11.687C15.697 11.6909 15.7008 11.6948 15.7046 11.6983C15.7082 11.7021 15.7159 11.7096 15.7195 11.7209L15.7382 11.7509H15.7046L15.6818 11.717C15.6778 11.7058 15.6707 11.7022 15.6669 11.6984C15.6669 11.6948 15.663 11.6948 15.6594 11.6909C15.6556 11.6909 15.6518 11.6909 15.6443 11.6909H15.6405V11.7509H15.6108ZM15.6406 11.6683H15.6595C15.6744 11.6683 15.6819 11.6683 15.6857 11.6647C15.6893 11.6647 15.6935 11.6647 15.6935 11.6608C15.697 11.657 15.697 11.6534 15.697 11.6495C15.697 11.6457 15.697 11.6421 15.6935 11.6383C15.6893 11.6344 15.6857 11.6344 15.6819 11.6308C15.6819 11.6308 15.6744 11.6308 15.6632 11.6308H15.6406V11.6683H15.6406Z" fill="#FBB230"/>
<path fill-rule="evenodd" clip-rule="evenodd" d="M15.6363 10.0952C15.7302 10.0952 15.8051 10.1703 15.8051 10.2643C15.8051 10.3582 15.7302 10.4332 15.6363 10.4332C15.5424 10.4332 15.4675 10.3582 15.4675 10.2643C15.4675 10.1703 15.5424 10.0952 15.6363 10.0952ZM15.6363 10.1252C15.7153 10.1252 15.779 10.189 15.779 10.2643C15.779 10.343 15.7154 10.4069 15.6363 10.4069C15.5573 10.4069 15.4937 10.343 15.4937 10.2643C15.4937 10.1891 15.5573 10.1252 15.6363 10.1252Z" fill="white"/>
<path d="M15.5725 10.3354V10.1963H15.6326C15.6476 10.1963 15.659 10.1963 15.6664 10.2001C15.6702 10.2001 15.6774 10.2076 15.6813 10.2114C15.6851 10.2189 15.6887 10.2263 15.6887 10.2341C15.6887 10.2453 15.6851 10.2527 15.6774 10.2601C15.6738 10.2676 15.6626 10.2714 15.6513 10.2753C15.6551 10.2789 15.6626 10.2828 15.6664 10.2866C15.6702 10.2902 15.6738 10.2977 15.6813 10.309L15.7002 10.3354H15.6664L15.6437 10.3053C15.6363 10.2941 15.6325 10.2866 15.6287 10.2866C15.6251 10.2828 15.6251 10.2789 15.6214 10.2789C15.6173 10.2789 15.6138 10.2789 15.6063 10.2789H15.5989V10.3354L15.5725 10.3354ZM15.5989 10.2566H15.6215C15.6363 10.2566 15.6438 10.2566 15.6476 10.2528C15.6513 10.2528 15.6551 10.2489 15.6551 10.2489C15.659 10.2453 15.659 10.2414 15.659 10.2376C15.659 10.2341 15.6551 10.2263 15.6551 10.2263C15.6513 10.2228 15.6476 10.2189 15.6439 10.2189C15.6401 10.2189 15.6326 10.2189 15.6215 10.2189H15.599L15.5989 10.2566Z" fill="white"/>
<path fill-rule="evenodd" clip-rule="evenodd" d="M13.2231 10.3616L13.4671 9.08508H13.7711L13.8088 9.21643C13.865 9.15998 13.9588 9.08508 14.1466 9.08508L14.0528 9.42302C13.9702 9.42302 13.8424 9.40789 13.7375 9.65568C13.6587 9.84354 13.621 10.1551 13.5797 10.3616H13.2231Z" fill="white"/>
<path fill-rule="evenodd" clip-rule="evenodd" d="M8.61981 8.76587H8.95741L8.88245 9.10376H9.07024L9.01385 9.36657H8.84503L8.7511 9.87356C8.73242 9.96749 8.7511 10.0614 8.9389 10.0236L8.90148 10.3054C8.69878 10.4593 8.293 10.3467 8.35683 9.96749L8.61981 8.76587Z" fill="white"/>
<path fill-rule="evenodd" clip-rule="evenodd" d="M10.1256 9.79838C10.1631 9.59185 10.257 9.08508 9.65262 9.08508C9.08958 9.08508 9.01439 9.64829 9.01439 9.72319C8.99588 9.79838 8.99588 10.3616 9.5964 10.3616C9.74649 10.3616 9.95686 10.3428 10.0507 10.3054L10.1069 10.0424C10.0507 10.0614 9.85915 10.0801 9.70906 10.0801C9.57772 10.0801 9.3525 10.0801 9.38992 9.79832L10.1256 9.79838Z" fill="white"/>
<path fill-rule="evenodd" clip-rule="evenodd" d="M6.02914 10.3616L6.32954 8.82202H5.74385L5.33079 9.76088L5.25565 8.82202H4.71132L4.41089 10.3616H4.74875L4.97424 9.25388L5.06813 10.3616H5.38725L5.87521 9.27262L5.66865 10.3616H6.02914Z" fill="white"/>
<path fill-rule="evenodd" clip-rule="evenodd" d="M6.42283 9.12249L6.36661 9.40426C6.46054 9.40426 6.6857 9.36655 6.7983 9.36655C6.91097 9.36655 7.06105 9.34787 7.00489 9.53567C6.91097 9.53567 6.29137 9.44174 6.1975 9.98621C6.14518 10.3467 6.57309 10.4781 6.83578 10.3054L6.87343 10.3804H7.19234L7.32392 9.68569C7.46277 9.05859 6.85842 9.0473 6.42283 9.12249Z" fill="white"/>
<path fill-rule="evenodd" clip-rule="evenodd" d="M12.0134 9.23524C11.927 9.18257 11.8744 9.18257 11.7656 9.18257C11.6605 9.18257 11.4126 9.28779 11.3787 9.56928C11.3261 9.92234 11.5552 10.0802 11.8893 9.97495L11.9796 10.2754C11.409 10.5607 10.8643 10.1176 11.0446 9.42664C11.1909 8.9047 11.8818 8.58939 12.2274 9.0212L12.0134 9.23524Z" fill="white"/>
<path fill-rule="evenodd" clip-rule="evenodd" d="M14.9905 9.23535C14.0706 8.54431 13.7138 10.3618 14.4272 10.3618C14.5398 10.3618 14.6527 10.3056 14.7276 10.2678L14.765 10.3618H15.1406L15.441 8.74707H15.0843L14.9905 9.23535Z" fill="white"/>
<path fill-rule="evenodd" clip-rule="evenodd" d="M12.2837 9.12249L12.2275 9.40426C12.321 9.40426 12.5466 9.36655 12.659 9.36655C12.7719 9.36655 12.9032 9.34787 12.8657 9.53567C12.7719 9.53567 12.1523 9.44174 12.0587 9.98621C12.0206 10.249 12.2462 10.3804 12.4153 10.3804C12.584 10.3804 12.6404 10.3429 12.6966 10.3054L12.7341 10.3804H13.0535L13.1848 9.68569C13.3276 9.05859 12.7229 9.0473 12.2837 9.12249Z" fill="white"/>
<path fill-rule="evenodd" clip-rule="evenodd" d="M9.3894 9.5544H9.82115C9.86992 9.21262 9.46069 9.2803 9.3894 9.5544Z" fill="#EB2230"/>
<path fill-rule="evenodd" clip-rule="evenodd" d="M6.94921 9.7984C6.89276 9.7984 6.76142 9.76092 6.64852 9.83611C6.5362 9.91101 6.49849 10.0424 6.63001 10.0801C6.74239 10.1175 6.89276 10.0424 6.93019 9.92975L6.94921 9.7984Z" fill="#EB2230"/>
<path fill-rule="evenodd" clip-rule="evenodd" d="M14.8221 9.4418C14.7095 9.29143 14.4656 9.40438 14.3904 9.68581C14.3342 9.87361 14.4468 10.005 14.5595 10.005C14.796 10.0051 14.9387 9.61836 14.8221 9.4418Z" fill="#FBB230"/>
<path fill-rule="evenodd" clip-rule="evenodd" d="M12.8288 9.7984C12.7727 9.7984 12.6413 9.76092 12.5284 9.83611C12.4161 9.91101 12.3784 10.0424 12.5099 10.0801C12.6223 10.1175 12.7914 10.0424 12.8101 9.92975L12.8288 9.7984Z" fill="#FBB230"/>
<path fill-rule="evenodd" clip-rule="evenodd" d="M10.1252 10.3803L10.1443 10.2489L10.3695 9.10376H10.6697L10.7071 9.23516C10.7635 9.17872 10.8575 9.10376 11.0452 9.10376L10.9513 9.4417C10.88 9.4417 10.7297 9.42657 10.617 9.72703C10.5532 9.89975 10.5157 10.1928 10.4819 10.3803H10.1252Z" fill="white"/>
<path fill-rule="evenodd" clip-rule="evenodd" d="M8.3082 9.41184H8.29302H8.27818L8.26333 9.408L8.2482 9.40439H8.23307L8.21817 9.40049C8.1505 9.3931 8.09428 9.3892 8.02683 9.3931C7.85393 9.40794 7.77903 9.51671 7.92528 9.59935C8.04173 9.66708 8.13199 9.65574 8.2105 9.73098C8.37961 9.88857 8.29313 10.1928 8.10534 10.3091L8.07176 10.3242L8.03428 10.3393L7.99302 10.3504L7.9556 10.3616C7.77525 10.3917 7.5313 10.3842 7.35474 10.3242L7.4035 10.0725C7.54614 10.1025 7.77909 10.1664 7.88786 10.0915C8.01181 10.0089 7.89915 9.9111 7.80883 9.86984L7.76396 9.85488L7.71909 9.8362C7.36224 9.67448 7.44511 9.24267 7.7827 9.15264C7.91789 9.12261 8.05307 9.12261 8.1921 9.1339H8.21823C8.25216 9.13751 8.28219 9.14141 8.31216 9.1488H8.32706L8.33835 9.15264H8.34964L8.35703 9.15648H8.36832L8.3082 9.41184Z" fill="white"/>
</g>
</g>
<g clip-path="url(#clip1_1_594)">
<path d="M38.0603 20C43.5832 20 48.0603 15.5228 48.0603 10C48.0603 4.47715 43.5832 0 38.0603 0C32.5375 0 28.0603 4.47715 28.0603 10C28.0603 15.5228 32.5375 20 38.0603 20Z" fill="#26A17B"/>
<path d="M43.5259 7.66625C43.0266 7.31187 42.4922 6.93375 41.9697 6.55875C41.9578 6.55 41.9466 6.54125 41.9322 6.5325C41.871 6.48222 41.8016 6.4427 41.7272 6.41562L41.7209 6.4125C40.3228 6.06943 38.9251 5.72484 37.5278 5.37875L33.7878 4.45562L33.6897 4.42937C33.5772 4.3975 33.4472 4.36187 33.3084 4.37937C33.2704 4.3852 33.2342 4.39928 33.2022 4.42062L33.1672 4.45C33.1234 4.49494 33.0899 4.5489 33.0691 4.60812L33.0603 4.63187V4.76625L33.0666 4.78687C33.8541 7.0275 34.6628 9.30062 35.4428 11.5C36.0434 13.1937 36.6678 14.9475 37.2766 16.67C37.3141 16.7869 37.4209 16.8638 37.5541 16.875H37.5828C37.641 16.8765 37.6985 16.8623 37.7493 16.8339C37.8001 16.8056 37.8423 16.7641 37.8716 16.7138L40.1591 13.3306C40.7159 12.5075 41.2734 11.6819 41.8309 10.8587L42.5153 9.845C42.8903 9.28875 43.2778 8.71438 43.6622 8.155L43.6822 8.12625V8.09062C43.6909 7.98812 43.6934 7.77812 43.5259 7.66625ZM40.8459 8.89937C40.3084 9.18313 39.7603 9.47625 39.2084 9.76625L40.1734 8.7175C40.5747 8.27812 40.9934 7.82375 41.4034 7.37875L41.4122 7.37C41.4466 7.32312 41.4903 7.27937 41.5366 7.2325C41.5678 7.20062 41.6028 7.16812 41.6347 7.13C41.8484 7.28 42.0647 7.43187 42.2728 7.58125C42.4228 7.68937 42.5759 7.79812 42.7322 7.90625C42.1012 8.23312 41.4725 8.56417 40.8459 8.89937ZM39.4659 8.75875C39.0528 9.2125 38.6253 9.67812 38.2009 10.1381C37.3773 9.12469 36.5513 8.11323 35.7228 7.10375L34.6109 5.7475L34.6084 5.74437C34.5247 5.64812 34.4434 5.5425 34.3628 5.44312C34.3109 5.37562 34.2559 5.31125 34.2009 5.24375C34.5359 5.33125 34.8741 5.41375 35.2059 5.4925C35.4978 5.56312 35.8009 5.63625 36.0984 5.7125L41.1266 6.95125C40.5691 7.555 40.0084 8.16687 39.4659 8.75875ZM38.0128 14.4675C38.0447 14.16 38.0797 13.8438 38.1084 13.5331C38.1347 13.2837 38.1603 13.0294 38.1866 12.7863C38.2266 12.3962 38.2703 11.9925 38.3053 11.5969L38.3134 11.5269C38.3422 11.2744 38.3709 11.0144 38.3884 10.7531C38.4221 10.7341 38.4569 10.7174 38.4928 10.7031C38.5359 10.6831 38.5791 10.6656 38.6222 10.6394C39.2893 10.2839 39.9574 9.93031 40.6266 9.57875C41.2941 9.2275 41.9784 8.86375 42.6572 8.50375C42.0413 9.40828 41.428 10.3145 40.8172 11.2225C40.3003 11.9862 39.7691 12.7744 39.2403 13.5506C39.0328 13.8612 38.8159 14.1775 38.6109 14.4819C38.3797 14.8219 38.1428 15.17 37.9122 15.5194C37.9409 15.1675 37.9753 14.8131 38.0128 14.4675ZM33.9878 5.935C33.9503 5.82937 33.9091 5.72125 33.8747 5.61875C34.6547 6.57375 35.4397 7.53437 36.2053 8.46562C36.6009 8.94875 36.9966 9.42937 37.3922 9.91562C37.4703 10.0062 37.5484 10.1031 37.6234 10.1969C37.7216 10.3169 37.8197 10.4431 37.9266 10.5631C37.8916 10.8644 37.8628 11.1694 37.8309 11.4619C37.8109 11.6669 37.7909 11.8725 37.7678 12.0806V12.0831C37.7591 12.2144 37.7416 12.3469 37.7272 12.4756L37.6609 13.0587L37.6578 13.0787C37.6059 13.6706 37.5422 14.2681 37.4816 14.8481C37.4559 15.0881 37.4328 15.3344 37.4066 15.5806C37.3922 15.5369 37.3753 15.4925 37.3603 15.4513C37.3163 15.3319 37.274 15.2119 37.2334 15.0913L36.9241 14.2212L33.9872 5.935" fill="white"/>
</g>
<g clip-path="url(#clip2_1_594)">
<path d="M66.0601 20C71.5829 20 76.0601 15.5228 76.0601 10C76.0601 4.47717 71.5829 0 66.0601 0C60.5372 0 56.0601 4.47717 56.0601 10C56.0601 15.5228 60.5372 20 66.0601 20Z" fill="#8DC351"/>
<path d="M70.7435 8.30665C70.2702 8.06665 69.7002 8.01665 69.0402 8.15998C69.6102 7.41665 69.6302 6.60331 69.1002 5.72665C68.9102 5.40665 68.6802 5.15998 68.4069 4.98998C68.1335 4.81665 67.8335 4.71998 67.4969 4.69665C67.1635 4.67331 66.8202 4.69665 66.4769 4.76331C66.1302 4.83331 65.7502 4.94331 65.3335 5.09998L64.4202 3.18665L63.2502 3.74331L64.1369 5.60331C63.9335 5.69998 63.6269 5.85331 63.2169 6.05998L62.3235 4.18331L61.1535 4.73998L62.0669 6.65331C61.9035 6.73665 61.6569 6.85665 61.3335 7.01331L59.7202 7.77331L60.3135 9.01998L61.1569 8.61665C61.5402 8.43331 61.8502 8.49665 62.0802 8.80998L63.1202 10.99C63.1702 10.9666 63.2135 10.95 63.2469 10.94L63.1269 10.9966L64.5835 14.05C64.6669 14.3266 64.5802 14.5266 64.3269 14.6466L63.4835 15.05L63.9102 16.5533L65.4302 15.83C65.5269 15.7833 65.6669 15.72 65.8502 15.6333C66.0335 15.55 66.1702 15.4866 66.2635 15.44L67.1869 17.3766L68.3569 16.82L67.4435 14.9066C67.6602 14.81 67.9702 14.6666 68.3735 14.4733L69.2835 16.38L70.4535 15.8233L69.5302 13.8866C69.9369 13.67 70.2869 13.4533 70.5802 13.2466C70.8735 13.0366 71.1402 12.8033 71.3769 12.5433C71.6135 12.2833 71.7869 12.02 71.9002 11.7466C72.0135 11.4766 72.0702 11.1733 72.0669 10.8366C72.0669 10.5033 71.9969 10.1466 71.8602 9.76998C71.5902 9.03331 71.2202 8.54331 70.7435 8.30665ZM63.8969 7.41331C63.9335 7.39665 64.0302 7.34665 64.1935 7.26665C64.3569 7.18665 64.4935 7.11665 64.6002 7.06331C64.7069 7.00998 64.8569 6.94665 65.0502 6.87331C65.2435 6.79998 65.4069 6.74665 65.5469 6.70998C65.6869 6.67331 65.8435 6.64998 66.0235 6.63665C66.2035 6.62331 66.3569 6.63665 66.4902 6.67665C66.6202 6.71665 66.7502 6.78665 66.8735 6.88665C66.9969 6.98665 67.1002 7.11998 67.1802 7.28665C67.2469 7.42998 67.2869 7.56998 67.2969 7.70665C67.3069 7.84331 67.2835 7.97331 67.2302 8.09665C67.1769 8.21998 67.1169 8.33331 67.0469 8.43665C66.9769 8.53998 66.8769 8.64665 66.7469 8.75331C66.6135 8.85998 66.4969 8.94998 66.3969 9.02331C66.2935 9.09665 66.1635 9.17665 66.0002 9.26331C65.8369 9.34998 65.7135 9.41665 65.6269 9.45998C65.5435 9.50331 65.4235 9.55998 65.2735 9.62998C65.1235 9.69998 65.0335 9.73998 65.0102 9.74998L63.8969 7.41331ZM69.5569 11.0633C69.5635 11.2033 69.5502 11.3333 69.5169 11.4566C69.4802 11.58 69.4169 11.7033 69.3269 11.8266C69.2335 11.9533 69.1402 12.0633 69.0435 12.1566C68.9469 12.2533 68.8235 12.3566 68.6735 12.4633C68.5235 12.5733 68.3902 12.6633 68.2702 12.7333C68.1535 12.8066 68.0102 12.8866 67.8402 12.9766C67.6702 13.0666 67.5402 13.1333 67.4435 13.18C67.3469 13.2266 67.2235 13.2833 67.0769 13.35C66.9302 13.4166 66.8335 13.46 66.7935 13.48L65.5702 10.9133C65.6102 10.8933 65.7302 10.8333 65.9269 10.7333C66.1235 10.6333 66.2869 10.5533 66.4135 10.4933C66.5402 10.4333 66.7169 10.3566 66.9469 10.2666C67.1769 10.1766 67.3735 10.11 67.5402 10.0666C67.7069 10.0233 67.8935 9.99331 68.1035 9.96998C68.3135 9.94665 68.4969 9.95665 68.6502 9.99331C68.8035 10.03 68.9535 10.1033 69.0969 10.21C69.2402 10.3166 69.3569 10.46 69.4435 10.64C69.5135 10.7833 69.5502 10.9233 69.5569 11.0633Z" fill="white"/>
</g>
<g clip-path="url(#clip3_1_594)">
<path d="M94.0601 20C99.5829 20 104.06 15.5228 104.06 10C104.06 4.47715 99.5829 0 94.0601 0C88.5372 0 84.0601 4.47715 84.0601 10C84.0601 15.5228 88.5372 20 94.0601 20Z" fill="#EB0029"/>
<path fill-rule="evenodd" clip-rule="evenodd" d="M89.5391 5.35789C89.6307 5.60145 93.4982 15.3033 93.5074 15.3125C93.5179 15.323 99.0461 8.61722 99.06 8.57708C99.067 8.557 97.1386 6.72706 97.0877 6.7055C97.0664 6.69643 95.3695 6.38145 93.3169 6.00553C91.2643 5.62961 89.5703 5.31867 89.5524 5.31458C89.5248 5.30823 89.5228 5.31475 89.5391 5.35789ZM93.6785 6.60615C95.1662 6.87897 96.3835 7.10801 96.3835 7.11515C96.3835 7.12834 94.366 8.80747 94.3031 8.84673C94.2736 8.86508 94.0367 8.6762 92.6212 7.50604C90.747 5.95672 90.9315 6.11126 90.9552 6.11061C90.9653 6.11034 92.1908 6.33333 93.6785 6.60615ZM92.3177 7.93618C93.5375 8.94626 94.0433 9.37615 94.0384 9.39878C94.0346 9.41639 93.9136 10.4137 93.7694 11.6151C93.6252 12.8164 93.503 13.8122 93.4977 13.8278C93.4925 13.8435 92.8327 12.211 92.0314 10.2002C91.2301 8.18936 90.5696 6.53211 90.5636 6.51743C90.5576 6.50275 90.5611 6.49409 90.5714 6.49819C90.5817 6.50226 91.3675 7.14937 92.3177 7.93618ZM97.5663 7.86534C97.8813 8.16337 98.1357 8.41047 98.1317 8.4145C98.119 8.42712 95.0444 8.97947 95.0167 8.97408C94.9933 8.9695 96.9529 7.32351 96.9818 7.32351C96.9882 7.32351 97.2513 7.56734 97.5663 7.86534ZM98.0204 9.01704C97.9304 9.14803 94.0393 13.8579 94.0357 13.8403C94.0332 13.8283 94.1463 12.8703 94.2869 11.7113L94.5427 9.604L96.249 9.29308C97.1875 9.12204 97.9759 8.98133 98.0011 8.98034C98.0429 8.9787 98.0446 8.98189 98.0204 9.01704Z" fill="white"/>
</g>
<g clip-path="url(#clip4_1_594)">
<path d="M122.06 20C127.583 20 132.06 15.5228 132.06 10C132.06 4.47717 127.583 0 122.06 0C116.537 0 112.06 4.47717 112.06 10C112.06 15.5228 116.537 20 122.06 20Z" fill="url(#paint0_linear_1_594)"/>
<path d="M122.06 12.12L118.223 10.2966L122.06 17L125.896 10.2966L122.06 12.12Z" fill="white"/>
<path d="M125.477 8.93667L122.06 3L118.637 8.94333L122.06 7.32L125.477 8.93667Z" fill="white"/>
<path d="M118.933 9.71331L122.06 11.1933L125.19 9.70998L122.06 8.22998L118.933 9.71331Z" fill="white"/>
</g>
<g clip-path="url(#clip5_1_594)">
<path d="M150.029 0.0419922L152.489 2.56111L146.295 8.75517L143.835 6.29533L150.029 0.0419922Z" fill="#F0B90B" stroke="#F0B90B" stroke-width="0.0592733"/>
<path d="M153.763 3.77637L156.223 6.29548L146.295 16.2238L143.835 13.7639L153.763 3.77637Z" fill="#F0B90B" stroke="#F0B90B" stroke-width="0.0592733"/>
<path d="M142.561 7.51074L145.021 10.0299L142.561 12.4897L140.101 10.0299L142.561 7.51074Z" fill="#F0B90B" stroke="#F0B90B" stroke-width="0.0592733"/>
<path d="M157.498 7.51074L159.957 10.0299L150.029 19.9581L147.569 17.4983L157.498 7.51074Z" fill="#F0B90B" stroke="#F0B90B" stroke-width="0.0592733"/>
</g>
<defs>
<linearGradient id="paint0_linear_1_594" x1="122.06" y1="0" x2="122.06" y2="20" gradientUnits="userSpaceOnUse">
<stop stop-color="#4A819F"/>
<stop offset="1" stop-color="#034681"/>
</linearGradient>
<clipPath id="clip0_1_594">
<rect width="20" height="12.4928" fill="white" transform="translate(0.0600586 3.2251)"/>
</clipPath>
<clipPath id="clip1_1_594">
<rect width="20" height="20" fill="white" transform="translate(28.0598)"/>
</clipPath>
<clipPath id="clip2_1_594">
<rect width="20" height="20" fill="white" transform="translate(56.0598)"/>
</clipPath>
<clipPath id="clip3_1_594">
<rect width="20" height="20" fill="white" transform="translate(84.0598)"/>
</clipPath>
<clipPath id="clip4_1_594">
<rect width="20" height="20" fill="white" transform="translate(112.06)"/>
</clipPath>
<clipPath id="clip5_1_594">
<rect width="19.9401" height="20" fill="white" transform="translate(140.06)"/>
</clipPath>
</defs>
</svg>
