<svg width="40" height="40" viewBox="0 0 40 40" fill="none" xmlns="http://www.w3.org/2000/svg">
<rect width="40" height="40" rx="20" fill="#F7F7F7"/>
<path fill-rule="evenodd" clip-rule="evenodd" d="M17.9772 15.956C17.9772 15.0989 18.7051 14.7692 19.9107 14.7692C21.6395 14.7692 23.8232 15.2747 25.552 16.1758V11.011C23.664 10.2857 21.7987 10 19.9107 10C15.293 10 12.2222 12.3297 12.2222 16.2198C12.2222 22.2857 20.8661 21.3187 20.8661 23.9341C20.8661 24.9451 19.9562 25.2747 18.6824 25.2747C16.7943 25.2747 14.3831 24.5275 12.4724 23.5165V28.7473C14.5879 29.6264 16.7261 30 18.6824 30C23.4138 30 26.6666 27.7363 26.6666 23.8022C26.6439 17.2527 17.9772 18.4176 17.9772 15.956Z" fill="#635BFF"/>
</svg>