<svg width="41" height="40" viewBox="0 0 41 40" fill="none" xmlns="http://www.w3.org/2000/svg">
<rect x="0.712891" width="40" height="40" rx="20" fill="#F7F7F7"/>
<g clip-path="url(#clip0_1_867)">
<path d="M19.0462 14.1667C19.0462 13.7246 19.2218 13.3007 19.5344 12.9882C19.8469 12.6756 20.2708 12.5 20.7129 12.5C21.1549 12.5 21.5788 12.6756 21.8914 12.9882C22.2039 13.3007 22.3795 13.7246 22.3795 14.1667C23.3365 14.6192 24.1524 15.3236 24.7396 16.2044C25.3268 17.0852 25.6632 18.1092 25.7129 19.1667V21.6667C25.7756 22.1848 25.9591 22.6809 26.2485 23.1151C26.538 23.5493 26.9254 23.9095 27.3795 24.1667H14.0462C14.5003 23.9095 14.8877 23.5493 15.1772 23.1151C15.4667 22.6809 15.6502 22.1848 15.7129 21.6667V19.1667C15.7625 18.1092 16.099 17.0852 16.6862 16.2044C17.2734 15.3236 18.0892 14.6192 19.0462 14.1667" stroke="#1D1D1F" stroke-width="1.5" stroke-linecap="round" stroke-linejoin="round"/>
<path d="M18.2129 24.1667V25C18.2129 25.663 18.4763 26.2989 18.9451 26.7678C19.414 27.2366 20.0498 27.5 20.7129 27.5C21.3759 27.5 22.0118 27.2366 22.4807 26.7678C22.9495 26.2989 23.2129 25.663 23.2129 25V24.1667" stroke="#1D1D1F" stroke-width="1.5" stroke-linecap="round" stroke-linejoin="round"/>
</g>
<defs>
<clipPath id="clip0_1_867">
<rect width="20" height="20" fill="white" transform="translate(10.7129 10)"/>
</clipPath>
</defs>
</svg>