<svg width="41" height="40" viewBox="0 0 41 40" fill="none" xmlns="http://www.w3.org/2000/svg">
<rect x="0.712891" width="40" height="40" rx="20" fill="#F7F7F7"/>
<path d="M12.3796 24.9384C12.3796 24.4323 12.5086 23.9345 12.7544 23.492L17.9093 14.2132C18.3662 13.3907 19.1613 12.8103 20.0839 12.6258V12.6258C20.4991 12.5428 20.9267 12.5428 21.3419 12.6258V12.6258C22.2645 12.8103 23.0596 13.3907 23.5165 14.2132L28.6715 23.492C28.9173 23.9345 29.0462 24.4323 29.0462 24.9384V24.9384C29.0462 26.5833 27.7128 27.9167 26.068 27.9167H15.3578C13.713 27.9167 12.3796 26.5833 12.3796 24.9384V24.9384Z" stroke="#F23152" stroke-width="1.5"/>
<path d="M20.7129 17.5L20.7129 20.8333" stroke="#F23152" stroke-width="1.5" stroke-linecap="round" stroke-linejoin="round"/>
<path d="M20.7129 23.3333L20.7129 23.75" stroke="#F23152" stroke-width="1.5" stroke-linecap="round" stroke-linejoin="round"/>
</svg>